{
	"asset":{
		"generator":"Khronos glTF Blender I/O v4.2.60",
		"version":"2.0"
	},
	"extensionsUsed":[
		"KHR_materials_specular"
	],
	"scene":0,
	"scenes":[
		{
			"name":"Scene",
			"nodes":[
				0
			]
		}
	],
	"nodes":[
		{
			"mesh":0,
			"name":"logo",
			"rotation":[
				0.7071068286895752,
				0,
				0,
				0.7071068286895752
			]
		}
	],
	"materials":[
		{
			"alphaMode":"BLEND",
			"doubleSided":true,
			"extensions":{
				"KHR_materials_specular":{
					"specularFactor":0.125490203499794
				}
			},
			"name":"7373501Mtl",
			"pbrMetallicRoughness":{
				"baseColorTexture":{
					"index":0
				},
				"metallicFactor":0
			}
		},
		{
			"alphaMode":"BLEND",
			"doubleSided":true,
			"extensions":{
				"KHR_materials_specular":{
					"specularFactor":0.125490203499794
				}
			},
			"name":"Ffff381Mtl",
			"pbrMetallicRoughness":{
				"baseColorTexture":{
					"index":1
				},
				"metallicFactor":0
			}
		},
		{
			"alphaMode":"BLEND",
			"doubleSided":true,
			"extensions":{
				"KHR_materials_specular":{
					"specularFactor":0.125490203499794
				}
			},
			"name":"Ea2b2b1Mtl",
			"pbrMetallicRoughness":{
				"baseColorTexture":{
					"index":2
				},
				"metallicFactor":0
			}
		},
		{
			"alphaMode":"BLEND",
			"doubleSided":true,
			"extensions":{
				"KHR_materials_specular":{
					"specularFactor":0.125490203499794
				}
			},
			"name":"29e0291Mtl",
			"pbrMetallicRoughness":{
				"baseColorTexture":{
					"index":3
				},
				"metallicFactor":0
			}
		},
		{
			"alphaMode":"BLEND",
			"doubleSided":true,
			"extensions":{
				"KHR_materials_specular":{
					"specularFactor":0.125490203499794
				}
			},
			"name":"Ee2c2c1Mtl",
			"pbrMetallicRoughness":{
				"baseColorTexture":{
					"index":4
				},
				"metallicFactor":0
			}
		},
		{
			"alphaMode":"BLEND",
			"doubleSided":true,
			"extensions":{
				"KHR_materials_specular":{
					"specularFactor":0.125490203499794
				}
			},
			"name":"D6d7311Mtl",
			"pbrMetallicRoughness":{
				"baseColorTexture":{
					"index":5
				},
				"metallicFactor":0
			}
		},
		{
			"alphaMode":"BLEND",
			"doubleSided":true,
			"extensions":{
				"KHR_materials_specular":{
					"specularFactor":0.125490203499794
				}
			},
			"name":"566dda1Mtl",
			"pbrMetallicRoughness":{
				"baseColorTexture":{
					"index":6
				},
				"metallicFactor":0
			}
		}
	],
	"meshes":[
		{
			"name":"logo",
			"primitives":[
				{
					"attributes":{
						"POSITION":0,
						"NORMAL":1,
						"TEXCOORD_0":2
					},
					"indices":3,
					"material":0
				},
				{
					"attributes":{
						"POSITION":4,
						"NORMAL":5,
						"TEXCOORD_0":6
					},
					"indices":7,
					"material":1
				},
				{
					"attributes":{
						"POSITION":8,
						"NORMAL":9,
						"TEXCOORD_0":10
					},
					"indices":11,
					"material":2
				},
				{
					"attributes":{
						"POSITION":12,
						"NORMAL":13,
						"TEXCOORD_0":14
					},
					"indices":15,
					"material":3
				},
				{
					"attributes":{
						"POSITION":16,
						"NORMAL":17,
						"TEXCOORD_0":18
					},
					"indices":19,
					"material":4
				},
				{
					"attributes":{
						"POSITION":20,
						"NORMAL":21,
						"TEXCOORD_0":22
					},
					"indices":23,
					"material":5
				},
				{
					"attributes":{
						"POSITION":24,
						"NORMAL":25,
						"TEXCOORD_0":26
					},
					"indices":27,
					"material":6
				}
			]
		}
	],
	"textures":[
		{
			"sampler":0,
			"source":0
		},
		{
			"sampler":0,
			"source":1
		},
		{
			"sampler":0,
			"source":2
		},
		{
			"sampler":0,
			"source":3
		},
		{
			"sampler":0,
			"source":4
		},
		{
			"sampler":0,
			"source":5
		},
		{
			"sampler":0,
			"source":6
		}
	],
	"images":[
		{
			"mimeType":"image/png",
			"name":"7373501_diff",
			"uri":"7373501_diff.png"
		},
		{
			"mimeType":"image/png",
			"name":"Ffff381_diff",
			"uri":"Ffff381_diff.png"
		},
		{
			"mimeType":"image/png",
			"name":"Ea2b2b1_diff",
			"uri":"Ea2b2b1_diff.png"
		},
		{
			"mimeType":"image/png",
			"name":"29e0291_diff",
			"uri":"29e0291_diff.png"
		},
		{
			"mimeType":"image/png",
			"name":"Ee2c2c1_diff",
			"uri":"Ee2c2c1_diff.png"
		},
		{
			"mimeType":"image/png",
			"name":"D6d7311_diff",
			"uri":"D6d7311_diff.png"
		},
		{
			"mimeType":"image/png",
			"name":"566dda1_diff",
			"uri":"566dda1_diff.png"
		}
	],
	"accessors":[
		{
			"bufferView":0,
			"componentType":5126,
			"count":300,
			"max":[
				4.893919944763184,
				20.92169952392578,
				-9.194450378417969
			],
			"min":[
				-2.0278899669647217,
				9.40604019165039,
				-17.37339973449707
			],
			"type":"VEC3"
		},
		{
			"bufferView":1,
			"componentType":5126,
			"count":300,
			"type":"VEC3"
		},
		{
			"bufferView":2,
			"componentType":5126,
			"count":300,
			"type":"VEC2"
		},
		{
			"bufferView":3,
			"componentType":5123,
			"count":324,
			"type":"SCALAR"
		},
		{
			"bufferView":4,
			"componentType":5126,
			"count":324,
			"max":[
				1.6037299633026123,
				20.92169952392578,
				-11.103400230407715
			],
			"min":[
				-2.089979887008667,
				9.40604019165039,
				-17.37339973449707
			],
			"type":"VEC3"
		},
		{
			"bufferView":5,
			"componentType":5126,
			"count":324,
			"type":"VEC3"
		},
		{
			"bufferView":6,
			"componentType":5126,
			"count":324,
			"type":"VEC2"
		},
		{
			"bufferView":7,
			"componentType":5123,
			"count":324,
			"type":"SCALAR"
		},
		{
			"bufferView":8,
			"componentType":5126,
			"count":162,
			"max":[
				1.3243800401687622,
				20.719900131225586,
				-11.367199897766113
			],
			"min":[
				-2.089970111846924,
				9.607789993286133,
				-17.295799255371094
			],
			"type":"VEC3"
		},
		{
			"bufferView":9,
			"componentType":5126,
			"count":162,
			"type":"VEC3"
		},
		{
			"bufferView":10,
			"componentType":5126,
			"count":162,
			"type":"VEC2"
		},
		{
			"bufferView":11,
			"componentType":5123,
			"count":162,
			"type":"SCALAR"
		},
		{
			"bufferView":12,
			"componentType":5126,
			"count":759,
			"max":[
				6.539010047912598,
				13.999899864196777,
				-1.0000100135803223
			],
			"min":[
				-6.963180065155029,
				-15.642800331115723,
				-19.096099853515625
			],
			"type":"VEC3"
		},
		{
			"bufferView":13,
			"componentType":5126,
			"count":759,
			"type":"VEC3"
		},
		{
			"bufferView":14,
			"componentType":5126,
			"count":759,
			"type":"VEC2"
		},
		{
			"bufferView":15,
			"componentType":5123,
			"count":765,
			"type":"SCALAR"
		},
		{
			"bufferView":16,
			"componentType":5126,
			"count":310,
			"max":[
				6.244140148162842,
				6.255529880523682,
				-1.2793699502944946
			],
			"min":[
				-6.528629779815674,
				-20.764400482177734,
				-19.623699188232422
			],
			"type":"VEC3"
		},
		{
			"bufferView":17,
			"componentType":5126,
			"count":310,
			"type":"VEC3"
		},
		{
			"bufferView":18,
			"componentType":5126,
			"count":310,
			"type":"VEC2"
		},
		{
			"bufferView":19,
			"componentType":5123,
			"count":318,
			"type":"SCALAR"
		},
		{
			"bufferView":20,
			"componentType":5126,
			"count":517,
			"max":[
				6.104459762573242,
				3.3688600063323975,
				-1.0931299924850464
			],
			"min":[
				-6.6217498779296875,
				-8.61240005493164,
				-19.297800064086914
			],
			"type":"VEC3"
		},
		{
			"bufferView":21,
			"componentType":5126,
			"count":517,
			"type":"VEC3"
		},
		{
			"bufferView":22,
			"componentType":5126,
			"count":517,
			"type":"VEC2"
		},
		{
			"bufferView":23,
			"componentType":5123,
			"count":531,
			"type":"SCALAR"
		},
		{
			"bufferView":24,
			"componentType":5126,
			"count":671,
			"max":[
				6.135499954223633,
				2.080709934234619,
				-1.2017699480056763
			],
			"min":[
				-7.3356499671936035,
				-21.695600509643555,
				-19.37540054321289
			],
			"type":"VEC3"
		},
		{
			"bufferView":25,
			"componentType":5126,
			"count":671,
			"type":"VEC3"
		},
		{
			"bufferView":26,
			"componentType":5126,
			"count":671,
			"type":"VEC2"
		},
		{
			"bufferView":27,
			"componentType":5123,
			"count":687,
			"type":"SCALAR"
		}
	],
	"bufferViews":[
		{
			"buffer":0,
			"byteLength":3600,
			"byteOffset":0,
			"target":34962
		},
		{
			"buffer":0,
			"byteLength":3600,
			"byteOffset":3600,
			"target":34962
		},
		{
			"buffer":0,
			"byteLength":2400,
			"byteOffset":7200,
			"target":34962
		},
		{
			"buffer":0,
			"byteLength":648,
			"byteOffset":9600,
			"target":34963
		},
		{
			"buffer":0,
			"byteLength":3888,
			"byteOffset":10248,
			"target":34962
		},
		{
			"buffer":0,
			"byteLength":3888,
			"byteOffset":14136,
			"target":34962
		},
		{
			"buffer":0,
			"byteLength":2592,
			"byteOffset":18024,
			"target":34962
		},
		{
			"buffer":0,
			"byteLength":648,
			"byteOffset":20616,
			"target":34963
		},
		{
			"buffer":0,
			"byteLength":1944,
			"byteOffset":21264,
			"target":34962
		},
		{
			"buffer":0,
			"byteLength":1944,
			"byteOffset":23208,
			"target":34962
		},
		{
			"buffer":0,
			"byteLength":1296,
			"byteOffset":25152,
			"target":34962
		},
		{
			"buffer":0,
			"byteLength":324,
			"byteOffset":26448,
			"target":34963
		},
		{
			"buffer":0,
			"byteLength":9108,
			"byteOffset":26772,
			"target":34962
		},
		{
			"buffer":0,
			"byteLength":9108,
			"byteOffset":35880,
			"target":34962
		},
		{
			"buffer":0,
			"byteLength":6072,
			"byteOffset":44988,
			"target":34962
		},
		{
			"buffer":0,
			"byteLength":1530,
			"byteOffset":51060,
			"target":34963
		},
		{
			"buffer":0,
			"byteLength":3720,
			"byteOffset":52592,
			"target":34962
		},
		{
			"buffer":0,
			"byteLength":3720,
			"byteOffset":56312,
			"target":34962
		},
		{
			"buffer":0,
			"byteLength":2480,
			"byteOffset":60032,
			"target":34962
		},
		{
			"buffer":0,
			"byteLength":636,
			"byteOffset":62512,
			"target":34963
		},
		{
			"buffer":0,
			"byteLength":6204,
			"byteOffset":63148,
			"target":34962
		},
		{
			"buffer":0,
			"byteLength":6204,
			"byteOffset":69352,
			"target":34962
		},
		{
			"buffer":0,
			"byteLength":4136,
			"byteOffset":75556,
			"target":34962
		},
		{
			"buffer":0,
			"byteLength":1062,
			"byteOffset":79692,
			"target":34963
		},
		{
			"buffer":0,
			"byteLength":8052,
			"byteOffset":80756,
			"target":34962
		},
		{
			"buffer":0,
			"byteLength":8052,
			"byteOffset":88808,
			"target":34962
		},
		{
			"buffer":0,
			"byteLength":5368,
			"byteOffset":96860,
			"target":34962
		},
		{
			"buffer":0,
			"byteLength":1374,
			"byteOffset":102228,
			"target":34963
		}
	],
	"samplers":[
		{
			"magFilter":9729,
			"minFilter":9987
		}
	],
	"buffers":[
		{
			"byteLength":103604,
			"uri":"logo.bin"
		}
	]
}
