{
	"asset":{
		"generator":"Khronos glTF Blender I/O v4.2.60",
		"version":"2.0"
	},
	"extensionsUsed":[
		"KHR_materials_transmission",
		"KHR_materials_specular"
	],
	"scene":0,
	"scenes":[
		{
			"name":"Scene",
			"nodes":[
				0
			]
		}
	],
	"nodes":[
		{
			"mesh":0,
			"name":"mariohead",
			"rotation":[
				0.7071068286895752,
				0,
				0,
				0.7071068286895752
			]
		}
	],
	"materials":[
		{
			"doubleSided":true,
			"extensions":{
				"KHR_materials_transmission":{
					"transmissionFactor":1
				},
				"KHR_materials_specular":{
					"specularFactor":0
				}
			},
			"name":"Material_123_BLACK_png",
			"pbrMetallicRoughness":{
				"baseColorTexture":{
					"index":0
				},
				"metallicFactor":0
			}
		},
		{
			"doubleSided":true,
			"extensions":{
				"KHR_materials_transmission":{
					"transmissionFactor":1
				},
				"KHR_materials_specular":{
					"specularFactor":0
				}
			},
			"name":"Material_122_BLACK_png",
			"pbrMetallicRoughness":{
				"baseColorTexture":{
					"index":1
				},
				"metallicFactor":0
			}
		},
		{
			"doubleSided":true,
			"extensions":{
				"KHR_materials_transmission":{
					"transmissionFactor":1
				},
				"KHR_materials_specular":{
					"specularFactor":0
				}
			},
			"name":"Material_121_BLACK_png",
			"pbrMetallicRoughness":{
				"baseColorTexture":{
					"index":2
				},
				"metallicFactor":0
			}
		},
		{
			"doubleSided":true,
			"extensions":{
				"KHR_materials_transmission":{
					"transmissionFactor":1
				},
				"KHR_materials_specular":{
					"specularFactor":0
				}
			},
			"name":"Material_120_WHITE_png",
			"pbrMetallicRoughness":{
				"baseColorTexture":{
					"index":3
				},
				"metallicFactor":0
			}
		},
		{
			"doubleSided":true,
			"extensions":{
				"KHR_materials_transmission":{
					"transmissionFactor":1
				},
				"KHR_materials_specular":{
					"specularFactor":0
				}
			},
			"name":"Material_119_BLACK_png",
			"pbrMetallicRoughness":{
				"baseColorTexture":{
					"index":4
				},
				"metallicFactor":0
			}
		},
		{
			"doubleSided":true,
			"extensions":{
				"KHR_materials_transmission":{
					"transmissionFactor":1
				},
				"KHR_materials_specular":{
					"specularFactor":0
				}
			},
			"name":"Material_118_BLUE_png",
			"pbrMetallicRoughness":{
				"baseColorTexture":{
					"index":5
				},
				"metallicFactor":0
			}
		},
		{
			"doubleSided":true,
			"extensions":{
				"KHR_materials_transmission":{
					"transmissionFactor":1
				},
				"KHR_materials_specular":{
					"specularFactor":0
				}
			},
			"name":"Material_117_WHITE_png",
			"pbrMetallicRoughness":{
				"baseColorTexture":{
					"index":6
				},
				"metallicFactor":0
			}
		},
		{
			"doubleSided":true,
			"extensions":{
				"KHR_materials_transmission":{
					"transmissionFactor":1
				},
				"KHR_materials_specular":{
					"specularFactor":0
				}
			},
			"name":"Material_116_BLACK_png",
			"pbrMetallicRoughness":{
				"baseColorTexture":{
					"index":7
				},
				"metallicFactor":0
			}
		},
		{
			"doubleSided":true,
			"extensions":{
				"KHR_materials_transmission":{
					"transmissionFactor":1
				},
				"KHR_materials_specular":{
					"specularFactor":0
				}
			},
			"name":"Material_115_BLUE_png",
			"pbrMetallicRoughness":{
				"baseColorTexture":{
					"index":8
				},
				"metallicFactor":0
			}
		},
		{
			"doubleSided":true,
			"extensions":{
				"KHR_materials_transmission":{
					"transmissionFactor":1
				},
				"KHR_materials_specular":{
					"specularFactor":0
				}
			},
			"name":"Material_114_RED_png",
			"pbrMetallicRoughness":{
				"baseColorTexture":{
					"index":9
				},
				"metallicFactor":0
			}
		},
		{
			"doubleSided":true,
			"extensions":{
				"KHR_materials_transmission":{
					"transmissionFactor":1
				},
				"KHR_materials_specular":{
					"specularFactor":0
				}
			},
			"name":"Material_113_RED_png",
			"pbrMetallicRoughness":{
				"baseColorTexture":{
					"index":10
				},
				"metallicFactor":0
			}
		},
		{
			"doubleSided":true,
			"extensions":{
				"KHR_materials_transmission":{
					"transmissionFactor":1
				},
				"KHR_materials_specular":{
					"specularFactor":0
				}
			},
			"name":"Material_112_HAIR_png",
			"pbrMetallicRoughness":{
				"baseColorTexture":{
					"index":11
				},
				"metallicFactor":0
			}
		},
		{
			"doubleSided":true,
			"extensions":{
				"KHR_materials_transmission":{
					"transmissionFactor":1
				},
				"KHR_materials_specular":{
					"specularFactor":0
				}
			},
			"name":"Material_111_WHITE_png",
			"pbrMetallicRoughness":{
				"baseColorTexture":{
					"index":12
				},
				"metallicFactor":0
			}
		},
		{
			"doubleSided":true,
			"extensions":{
				"KHR_materials_transmission":{
					"transmissionFactor":1
				},
				"KHR_materials_specular":{
					"specularFactor":0
				}
			},
			"name":"Material_110_WHITE_png",
			"pbrMetallicRoughness":{
				"baseColorTexture":{
					"index":13
				},
				"metallicFactor":0
			}
		},
		{
			"doubleSided":true,
			"extensions":{
				"KHR_materials_transmission":{
					"transmissionFactor":1
				},
				"KHR_materials_specular":{
					"specularFactor":0
				}
			},
			"name":"Material_109_HAIR_png",
			"pbrMetallicRoughness":{
				"baseColorTexture":{
					"index":14
				},
				"metallicFactor":0
			}
		},
		{
			"doubleSided":true,
			"extensions":{
				"KHR_materials_transmission":{
					"transmissionFactor":1
				},
				"KHR_materials_specular":{
					"specularFactor":0
				}
			},
			"name":"Material_121_SKIN_png",
			"pbrMetallicRoughness":{
				"baseColorTexture":{
					"index":15
				},
				"metallicFactor":0
			}
		},
		{
			"doubleSided":true,
			"extensions":{
				"KHR_materials_transmission":{
					"transmissionFactor":1
				},
				"KHR_materials_specular":{
					"specularFactor":0
				}
			},
			"name":"Material_121_WHITE_png",
			"pbrMetallicRoughness":{
				"baseColorTexture":{
					"index":16
				},
				"metallicFactor":0
			}
		}
	],
	"meshes":[
		{
			"name":"mariohead",
			"primitives":[
				{
					"attributes":{
						"POSITION":0,
						"NORMAL":1,
						"TEXCOORD_0":2
					},
					"indices":3,
					"material":0
				},
				{
					"attributes":{
						"POSITION":4,
						"NORMAL":5,
						"TEXCOORD_0":6
					},
					"indices":7,
					"material":1
				},
				{
					"attributes":{
						"POSITION":8,
						"NORMAL":9,
						"TEXCOORD_0":10
					},
					"indices":11,
					"material":2
				},
				{
					"attributes":{
						"POSITION":12,
						"NORMAL":13,
						"TEXCOORD_0":14
					},
					"indices":15,
					"material":3
				},
				{
					"attributes":{
						"POSITION":16,
						"NORMAL":17,
						"TEXCOORD_0":18
					},
					"indices":19,
					"material":4
				},
				{
					"attributes":{
						"POSITION":20,
						"NORMAL":21,
						"TEXCOORD_0":22
					},
					"indices":23,
					"material":5
				},
				{
					"attributes":{
						"POSITION":24,
						"NORMAL":25,
						"TEXCOORD_0":26
					},
					"indices":27,
					"material":6
				},
				{
					"attributes":{
						"POSITION":28,
						"NORMAL":29,
						"TEXCOORD_0":30
					},
					"indices":31,
					"material":7
				},
				{
					"attributes":{
						"POSITION":32,
						"NORMAL":33,
						"TEXCOORD_0":34
					},
					"indices":35,
					"material":8
				},
				{
					"attributes":{
						"POSITION":36,
						"NORMAL":37,
						"TEXCOORD_0":38
					},
					"indices":39,
					"material":9
				},
				{
					"attributes":{
						"POSITION":40,
						"NORMAL":41,
						"TEXCOORD_0":42
					},
					"indices":43,
					"material":10
				},
				{
					"attributes":{
						"POSITION":44,
						"NORMAL":45,
						"TEXCOORD_0":46
					},
					"indices":47,
					"material":11
				},
				{
					"attributes":{
						"POSITION":48,
						"NORMAL":49,
						"TEXCOORD_0":50
					},
					"indices":51,
					"material":12
				},
				{
					"attributes":{
						"POSITION":52,
						"NORMAL":53,
						"TEXCOORD_0":54
					},
					"indices":55,
					"material":13
				},
				{
					"attributes":{
						"POSITION":56,
						"NORMAL":57,
						"TEXCOORD_0":58
					},
					"indices":59,
					"material":14
				},
				{
					"attributes":{
						"POSITION":60,
						"NORMAL":61,
						"TEXCOORD_0":62
					},
					"indices":63,
					"material":15
				},
				{
					"attributes":{
						"POSITION":64,
						"NORMAL":65,
						"TEXCOORD_0":66
					},
					"indices":67,
					"material":16
				}
			]
		}
	],
	"textures":[
		{
			"sampler":0,
			"source":0
		},
		{
			"sampler":0,
			"source":0
		},
		{
			"sampler":0,
			"source":0
		},
		{
			"sampler":0,
			"source":1
		},
		{
			"sampler":0,
			"source":0
		},
		{
			"sampler":0,
			"source":2
		},
		{
			"sampler":0,
			"source":1
		},
		{
			"sampler":0,
			"source":0
		},
		{
			"sampler":0,
			"source":2
		},
		{
			"sampler":0,
			"source":3
		},
		{
			"sampler":0,
			"source":3
		},
		{
			"sampler":0,
			"source":4
		},
		{
			"sampler":0,
			"source":1
		},
		{
			"sampler":0,
			"source":1
		},
		{
			"sampler":0,
			"source":4
		},
		{
			"sampler":0,
			"source":5
		},
		{
			"sampler":0,
			"source":1
		}
	],
	"images":[
		{
			"mimeType":"image/png",
			"name":"BLACK",
			"uri":"BLACK.png"
		},
		{
			"mimeType":"image/png",
			"name":"WHITE",
			"uri":"WHITE.png"
		},
		{
			"mimeType":"image/png",
			"name":"BLUE",
			"uri":"BLUE.png"
		},
		{
			"mimeType":"image/png",
			"name":"RED",
			"uri":"RED.png"
		},
		{
			"mimeType":"image/png",
			"name":"HAIR",
			"uri":"HAIR.png"
		},
		{
			"mimeType":"image/png",
			"name":"SKIN",
			"uri":"SKIN.png"
		}
	],
	"accessors":[
		{
			"bufferView":0,
			"componentType":5126,
			"count":56,
			"max":[
				1.527500033378601,
				2.0524001121520996,
				1.9184000492095947
			],
			"min":[
				-1.5325000286102295,
				1.4226000308990479,
				0.5239999890327454
			],
			"type":"VEC3"
		},
		{
			"bufferView":1,
			"componentType":5126,
			"count":56,
			"type":"VEC3"
		},
		{
			"bufferView":2,
			"componentType":5126,
			"count":56,
			"type":"VEC2"
		},
		{
			"bufferView":3,
			"componentType":5123,
			"count":300,
			"type":"SCALAR"
		},
		{
			"bufferView":4,
			"componentType":5126,
			"count":26,
			"max":[
				-0.18000000715255737,
				1.6775000095367432,
				-0.4124999940395355
			],
			"min":[
				-1.2549999952316284,
				1.1875,
				-1.0425000190734863
			],
			"type":"VEC3"
		},
		{
			"bufferView":5,
			"componentType":5126,
			"count":26,
			"type":"VEC3"
		},
		{
			"bufferView":6,
			"componentType":5126,
			"count":26,
			"type":"VEC2"
		},
		{
			"bufferView":7,
			"componentType":5123,
			"count":108,
			"type":"SCALAR"
		},
		{
			"bufferView":8,
			"componentType":5126,
			"count":26,
			"max":[
				1.2615000009536743,
				1.6299999952316284,
				-0.4124999940395355
			],
			"min":[
				0.18150000274181366,
				1.149999976158142,
				-1.0425000190734863
			],
			"type":"VEC3"
		},
		{
			"bufferView":9,
			"componentType":5126,
			"count":26,
			"type":"VEC3"
		},
		{
			"bufferView":10,
			"componentType":5126,
			"count":26,
			"type":"VEC2"
		},
		{
			"bufferView":11,
			"componentType":5123,
			"count":108,
			"type":"SCALAR"
		},
		{
			"bufferView":12,
			"componentType":5126,
			"count":12,
			"max":[
				-0.40049999952316284,
				1.332800030708313,
				0.1696999967098236
			],
			"min":[
				-0.5336999893188477,
				1.2861000299453735,
				-0.0032999999821186066
			],
			"type":"VEC3"
		},
		{
			"bufferView":13,
			"componentType":5126,
			"count":12,
			"type":"VEC3"
		},
		{
			"bufferView":14,
			"componentType":5126,
			"count":12,
			"type":"VEC2"
		},
		{
			"bufferView":15,
			"componentType":5123,
			"count":30,
			"type":"SCALAR"
		},
		{
			"bufferView":16,
			"componentType":5126,
			"count":24,
			"max":[
				-0.289900004863739,
				1.3557000160217285,
				0.3587000072002411
			],
			"min":[
				-0.6355000138282776,
				1.2331000566482544,
				-0.18019999563694
			],
			"type":"VEC3"
		},
		{
			"bufferView":17,
			"componentType":5126,
			"count":24,
			"type":"VEC3"
		},
		{
			"bufferView":18,
			"componentType":5126,
			"count":24,
			"type":"VEC2"
		},
		{
			"bufferView":19,
			"componentType":5123,
			"count":72,
			"type":"SCALAR"
		},
		{
			"bufferView":20,
			"componentType":5126,
			"count":36,
			"max":[
				-0.11959999799728394,
				1.3557000160217285,
				0.5055999755859375
			],
			"min":[
				-0.730400025844574,
				1.0968999862670898,
				-0.3068000078201294
			],
			"type":"VEC3"
		},
		{
			"bufferView":21,
			"componentType":5126,
			"count":36,
			"type":"VEC3"
		},
		{
			"bufferView":22,
			"componentType":5126,
			"count":36,
			"type":"VEC2"
		},
		{
			"bufferView":23,
			"componentType":5123,
			"count":144,
			"type":"SCALAR"
		},
		{
			"bufferView":24,
			"componentType":5126,
			"count":12,
			"max":[
				0.5320000052452087,
				1.3317999839782715,
				0.17569999396800995
			],
			"min":[
				0.3962000012397766,
				1.2884999513626099,
				0.010200000368058681
			],
			"type":"VEC3"
		},
		{
			"bufferView":25,
			"componentType":5126,
			"count":12,
			"type":"VEC3"
		},
		{
			"bufferView":26,
			"componentType":5126,
			"count":12,
			"type":"VEC2"
		},
		{
			"bufferView":27,
			"componentType":5123,
			"count":30,
			"type":"SCALAR"
		},
		{
			"bufferView":28,
			"componentType":5126,
			"count":24,
			"max":[
				0.6367999911308289,
				1.3568999767303467,
				0.3659999966621399
			],
			"min":[
				0.28349998593330383,
				1.2391999959945679,
				-0.17470000684261322
			],
			"type":"VEC3"
		},
		{
			"bufferView":29,
			"componentType":5126,
			"count":24,
			"type":"VEC3"
		},
		{
			"bufferView":30,
			"componentType":5126,
			"count":24,
			"type":"VEC2"
		},
		{
			"bufferView":31,
			"componentType":5123,
			"count":72,
			"type":"SCALAR"
		},
		{
			"bufferView":32,
			"componentType":5126,
			"count":36,
			"max":[
				0.7254999876022339,
				1.3621000051498413,
				0.5131999850273132
			],
			"min":[
				0.1216999962925911,
				1.1216000318527222,
				-0.299699991941452
			],
			"type":"VEC3"
		},
		{
			"bufferView":33,
			"componentType":5126,
			"count":36,
			"type":"VEC3"
		},
		{
			"bufferView":34,
			"componentType":5126,
			"count":36,
			"type":"VEC2"
		},
		{
			"bufferView":35,
			"componentType":5123,
			"count":144,
			"type":"SCALAR"
		},
		{
			"bufferView":36,
			"componentType":5126,
			"count":114,
			"max":[
				2.447499990463257,
				2.627500057220459,
				1.1775000095367432
			],
			"min":[
				-2.452500104904175,
				-3.077500104904175,
				-2.882499933242798
			],
			"type":"VEC3"
		},
		{
			"bufferView":37,
			"componentType":5126,
			"count":114,
			"type":"VEC3"
		},
		{
			"bufferView":38,
			"componentType":5126,
			"count":114,
			"type":"VEC2"
		},
		{
			"bufferView":39,
			"componentType":5123,
			"count":588,
			"type":"SCALAR"
		},
		{
			"bufferView":40,
			"componentType":5126,
			"count":19,
			"max":[
				0.6875,
				1.3674999475479126,
				2.382499933242798
			],
			"min":[
				-0.6175000071525574,
				0.4925000071525574,
				1.502500057220459
			],
			"type":"VEC3"
		},
		{
			"bufferView":41,
			"componentType":5126,
			"count":19,
			"type":"VEC3"
		},
		{
			"bufferView":42,
			"componentType":5126,
			"count":19,
			"type":"VEC2"
		},
		{
			"bufferView":43,
			"componentType":5123,
			"count":81,
			"type":"SCALAR"
		},
		{
			"bufferView":44,
			"componentType":5126,
			"count":106,
			"max":[
				2.117500066757202,
				0.5224999785423279,
				2.2774999141693115
			],
			"min":[
				-2.0924999713897705,
				-2.6624999046325684,
				-0.4625000059604645
			],
			"type":"VEC3"
		},
		{
			"bufferView":45,
			"componentType":5126,
			"count":106,
			"type":"VEC3"
		},
		{
			"bufferView":46,
			"componentType":5126,
			"count":106,
			"type":"VEC2"
		},
		{
			"bufferView":47,
			"componentType":5123,
			"count":474,
			"type":"SCALAR"
		},
		{
			"bufferView":48,
			"componentType":5126,
			"count":20,
			"max":[
				0.9024999737739563,
				1.3125,
				0.5325000286102295
			],
			"min":[
				-0.9075000286102295,
				0.9574999809265137,
				-0.5575000047683716
			],
			"type":"VEC3"
		},
		{
			"bufferView":49,
			"componentType":5126,
			"count":20,
			"type":"VEC3"
		},
		{
			"bufferView":50,
			"componentType":5126,
			"count":20,
			"type":"VEC2"
		},
		{
			"bufferView":51,
			"componentType":5123,
			"count":48,
			"type":"SCALAR"
		},
		{
			"bufferView":52,
			"componentType":5126,
			"count":17,
			"max":[
				0.8924999833106995,
				1.502500057220459,
				-1.2725000381469727
			],
			"min":[
				-0.8974999785423279,
				1.277500033378601,
				-2.3475000858306885
			],
			"type":"VEC3"
		},
		{
			"bufferView":53,
			"componentType":5126,
			"count":17,
			"type":"VEC3"
		},
		{
			"bufferView":54,
			"componentType":5126,
			"count":17,
			"type":"VEC2"
		},
		{
			"bufferView":55,
			"componentType":5123,
			"count":30,
			"type":"SCALAR"
		},
		{
			"bufferView":56,
			"componentType":5126,
			"count":11,
			"max":[
				1.6924999952316284,
				-1.277500033378601,
				1.3125
			],
			"min":[
				-1.6974999904632568,
				-2.447499990463257,
				0.6524999737739563
			],
			"type":"VEC3"
		},
		{
			"bufferView":57,
			"componentType":5126,
			"count":11,
			"type":"VEC3"
		},
		{
			"bufferView":58,
			"componentType":5126,
			"count":11,
			"type":"VEC2"
		},
		{
			"bufferView":59,
			"componentType":5123,
			"count":24,
			"type":"SCALAR"
		},
		{
			"bufferView":60,
			"componentType":5126,
			"count":261,
			"max":[
				2.512500047683716,
				3.077500104904175,
				2.882499933242798
			],
			"min":[
				-2.512500047683716,
				-1.6325000524520874,
				-0.9524999856948853
			],
			"type":"VEC3"
		},
		{
			"bufferView":61,
			"componentType":5126,
			"count":261,
			"type":"VEC3"
		},
		{
			"bufferView":62,
			"componentType":5126,
			"count":261,
			"type":"VEC2"
		},
		{
			"bufferView":63,
			"componentType":5123,
			"count":1365,
			"type":"SCALAR"
		},
		{
			"bufferView":64,
			"componentType":5126,
			"count":8,
			"max":[
				0.6875,
				1.527500033378601,
				2.077500104904175
			],
			"min":[
				-0.6175000071525574,
				1.3624999523162842,
				1.7274999618530273
			],
			"type":"VEC3"
		},
		{
			"bufferView":65,
			"componentType":5126,
			"count":8,
			"type":"VEC3"
		},
		{
			"bufferView":66,
			"componentType":5126,
			"count":8,
			"type":"VEC2"
		},
		{
			"bufferView":67,
			"componentType":5123,
			"count":18,
			"type":"SCALAR"
		}
	],
	"bufferViews":[
		{
			"buffer":0,
			"byteLength":672,
			"byteOffset":0,
			"target":34962
		},
		{
			"buffer":0,
			"byteLength":672,
			"byteOffset":672,
			"target":34962
		},
		{
			"buffer":0,
			"byteLength":448,
			"byteOffset":1344,
			"target":34962
		},
		{
			"buffer":0,
			"byteLength":600,
			"byteOffset":1792,
			"target":34963
		},
		{
			"buffer":0,
			"byteLength":312,
			"byteOffset":2392,
			"target":34962
		},
		{
			"buffer":0,
			"byteLength":312,
			"byteOffset":2704,
			"target":34962
		},
		{
			"buffer":0,
			"byteLength":208,
			"byteOffset":3016,
			"target":34962
		},
		{
			"buffer":0,
			"byteLength":216,
			"byteOffset":3224,
			"target":34963
		},
		{
			"buffer":0,
			"byteLength":312,
			"byteOffset":3440,
			"target":34962
		},
		{
			"buffer":0,
			"byteLength":312,
			"byteOffset":3752,
			"target":34962
		},
		{
			"buffer":0,
			"byteLength":208,
			"byteOffset":4064,
			"target":34962
		},
		{
			"buffer":0,
			"byteLength":216,
			"byteOffset":4272,
			"target":34963
		},
		{
			"buffer":0,
			"byteLength":144,
			"byteOffset":4488,
			"target":34962
		},
		{
			"buffer":0,
			"byteLength":144,
			"byteOffset":4632,
			"target":34962
		},
		{
			"buffer":0,
			"byteLength":96,
			"byteOffset":4776,
			"target":34962
		},
		{
			"buffer":0,
			"byteLength":60,
			"byteOffset":4872,
			"target":34963
		},
		{
			"buffer":0,
			"byteLength":288,
			"byteOffset":4932,
			"target":34962
		},
		{
			"buffer":0,
			"byteLength":288,
			"byteOffset":5220,
			"target":34962
		},
		{
			"buffer":0,
			"byteLength":192,
			"byteOffset":5508,
			"target":34962
		},
		{
			"buffer":0,
			"byteLength":144,
			"byteOffset":5700,
			"target":34963
		},
		{
			"buffer":0,
			"byteLength":432,
			"byteOffset":5844,
			"target":34962
		},
		{
			"buffer":0,
			"byteLength":432,
			"byteOffset":6276,
			"target":34962
		},
		{
			"buffer":0,
			"byteLength":288,
			"byteOffset":6708,
			"target":34962
		},
		{
			"buffer":0,
			"byteLength":288,
			"byteOffset":6996,
			"target":34963
		},
		{
			"buffer":0,
			"byteLength":144,
			"byteOffset":7284,
			"target":34962
		},
		{
			"buffer":0,
			"byteLength":144,
			"byteOffset":7428,
			"target":34962
		},
		{
			"buffer":0,
			"byteLength":96,
			"byteOffset":7572,
			"target":34962
		},
		{
			"buffer":0,
			"byteLength":60,
			"byteOffset":7668,
			"target":34963
		},
		{
			"buffer":0,
			"byteLength":288,
			"byteOffset":7728,
			"target":34962
		},
		{
			"buffer":0,
			"byteLength":288,
			"byteOffset":8016,
			"target":34962
		},
		{
			"buffer":0,
			"byteLength":192,
			"byteOffset":8304,
			"target":34962
		},
		{
			"buffer":0,
			"byteLength":144,
			"byteOffset":8496,
			"target":34963
		},
		{
			"buffer":0,
			"byteLength":432,
			"byteOffset":8640,
			"target":34962
		},
		{
			"buffer":0,
			"byteLength":432,
			"byteOffset":9072,
			"target":34962
		},
		{
			"buffer":0,
			"byteLength":288,
			"byteOffset":9504,
			"target":34962
		},
		{
			"buffer":0,
			"byteLength":288,
			"byteOffset":9792,
			"target":34963
		},
		{
			"buffer":0,
			"byteLength":1368,
			"byteOffset":10080,
			"target":34962
		},
		{
			"buffer":0,
			"byteLength":1368,
			"byteOffset":11448,
			"target":34962
		},
		{
			"buffer":0,
			"byteLength":912,
			"byteOffset":12816,
			"target":34962
		},
		{
			"buffer":0,
			"byteLength":1176,
			"byteOffset":13728,
			"target":34963
		},
		{
			"buffer":0,
			"byteLength":228,
			"byteOffset":14904,
			"target":34962
		},
		{
			"buffer":0,
			"byteLength":228,
			"byteOffset":15132,
			"target":34962
		},
		{
			"buffer":0,
			"byteLength":152,
			"byteOffset":15360,
			"target":34962
		},
		{
			"buffer":0,
			"byteLength":162,
			"byteOffset":15512,
			"target":34963
		},
		{
			"buffer":0,
			"byteLength":1272,
			"byteOffset":15676,
			"target":34962
		},
		{
			"buffer":0,
			"byteLength":1272,
			"byteOffset":16948,
			"target":34962
		},
		{
			"buffer":0,
			"byteLength":848,
			"byteOffset":18220,
			"target":34962
		},
		{
			"buffer":0,
			"byteLength":948,
			"byteOffset":19068,
			"target":34963
		},
		{
			"buffer":0,
			"byteLength":240,
			"byteOffset":20016,
			"target":34962
		},
		{
			"buffer":0,
			"byteLength":240,
			"byteOffset":20256,
			"target":34962
		},
		{
			"buffer":0,
			"byteLength":160,
			"byteOffset":20496,
			"target":34962
		},
		{
			"buffer":0,
			"byteLength":96,
			"byteOffset":20656,
			"target":34963
		},
		{
			"buffer":0,
			"byteLength":204,
			"byteOffset":20752,
			"target":34962
		},
		{
			"buffer":0,
			"byteLength":204,
			"byteOffset":20956,
			"target":34962
		},
		{
			"buffer":0,
			"byteLength":136,
			"byteOffset":21160,
			"target":34962
		},
		{
			"buffer":0,
			"byteLength":60,
			"byteOffset":21296,
			"target":34963
		},
		{
			"buffer":0,
			"byteLength":132,
			"byteOffset":21356,
			"target":34962
		},
		{
			"buffer":0,
			"byteLength":132,
			"byteOffset":21488,
			"target":34962
		},
		{
			"buffer":0,
			"byteLength":88,
			"byteOffset":21620,
			"target":34962
		},
		{
			"buffer":0,
			"byteLength":48,
			"byteOffset":21708,
			"target":34963
		},
		{
			"buffer":0,
			"byteLength":3132,
			"byteOffset":21756,
			"target":34962
		},
		{
			"buffer":0,
			"byteLength":3132,
			"byteOffset":24888,
			"target":34962
		},
		{
			"buffer":0,
			"byteLength":2088,
			"byteOffset":28020,
			"target":34962
		},
		{
			"buffer":0,
			"byteLength":2730,
			"byteOffset":30108,
			"target":34963
		},
		{
			"buffer":0,
			"byteLength":96,
			"byteOffset":32840,
			"target":34962
		},
		{
			"buffer":0,
			"byteLength":96,
			"byteOffset":32936,
			"target":34962
		},
		{
			"buffer":0,
			"byteLength":64,
			"byteOffset":33032,
			"target":34962
		},
		{
			"buffer":0,
			"byteLength":36,
			"byteOffset":33096,
			"target":34963
		}
	],
	"samplers":[
		{
			"magFilter":9729,
			"minFilter":9987
		}
	],
	"buffers":[
		{
			"byteLength":33132,
			"uri":"mario_head.bin"
		}
	]
}
